<svg width="24" height="24" viewBox="0 0 24 24" fill="none" xmlns="http://www.w3.org/2000/svg">
<path d="M1.11422 0H9.82922C10.4428 0 10.9434 0.501123 10.9434 1.11428V9.82979C10.9434 10.4401 10.4395 10.9441 9.82922 10.9441H1.11422C0.5025 10.9441 0 10.4415 0 9.82979V1.11428C0 0.499248 0.499219 0 1.11422 0ZM14.1703 13.0555H22.8858C23.4961 13.0555 24 13.5594 24 14.1697V22.8857C24 23.4951 23.4947 24 22.8858 24H14.1703C13.8656 24 13.5867 23.8739 13.3852 23.6733C13.1822 23.4684 13.0561 23.19 13.0561 22.8857V14.1697C13.0561 13.5547 13.5553 13.0555 14.1703 13.0555ZM22.6973 14.3577H14.3583V22.6973H22.6973V14.3577ZM14.1703 0H22.8858C23.4961 0 24 0.503936 24 1.11428V9.82979C24 10.4401 23.4961 10.9441 22.8858 10.9441H14.1703C13.5586 10.9441 13.0561 10.4415 13.0561 9.82979V1.11428C13.0561 0.499248 13.5553 0 14.1703 0ZM22.6973 1.30273H14.3583V9.64135H22.6973V1.30273ZM1.11422 13.0555H9.82922C10.4428 13.0555 10.9434 13.5561 10.9434 14.1697V22.8857C10.9434 23.4956 10.4395 24 9.82922 24H1.11422C0.503906 24 0 23.4956 0 22.8857V14.1697C0 13.5547 0.499219 13.0555 1.11422 13.0555ZM9.64078 14.3577H1.30266V22.6973H9.64078V14.3577ZM9.64078 1.30273H1.30266V9.64135H9.64078V1.30273Z" fill="#F9951A"/>
</svg>
