<svg width="660" height="386" viewBox="0 0 660 386" fill="none" xmlns="http://www.w3.org/2000/svg">
<path d="M90.78 32.56H93.26L97.02 43.24L96.66 43.1L99.5 35.8L100.48 38.7L96.56 47.68L90.78 32.56ZM97.82 32.56H99.94L104.06 43.06L103.64 42.98L107.16 32.56H109.44L103.76 47.64L97.82 32.56ZM113.879 47.2C112.906 47.2 112.073 47.0133 111.379 46.64C110.686 46.2533 110.153 45.7267 109.779 45.06C109.406 44.38 109.219 43.6067 109.219 42.74C109.219 41.9133 109.426 41.1667 109.839 40.5C110.266 39.82 110.833 39.28 111.539 38.88C112.259 38.48 113.053 38.28 113.919 38.28C115.039 38.28 115.966 38.6067 116.699 39.26C117.446 39.9133 117.946 40.8267 118.199 42L111.379 44.36L110.899 43.16L116.359 41.2L115.939 41.46C115.779 41.0467 115.526 40.6867 115.179 40.38C114.833 40.06 114.359 39.9 113.759 39.9C113.279 39.9 112.846 40.02 112.459 40.26C112.086 40.4867 111.786 40.8067 111.559 41.22C111.346 41.62 111.239 42.0933 111.239 42.64C111.239 43.2 111.353 43.6933 111.579 44.12C111.819 44.5333 112.139 44.86 112.539 45.1C112.953 45.34 113.413 45.46 113.919 45.46C114.279 45.46 114.619 45.3933 114.939 45.26C115.273 45.1267 115.586 44.96 115.879 44.76L116.819 46.28C116.379 46.56 115.899 46.7867 115.379 46.96C114.873 47.12 114.373 47.2 113.879 47.2ZM120.486 31.46H122.546V47H120.486V31.46ZM132.542 46.22C132.168 46.5267 131.715 46.7667 131.182 46.94C130.662 47.1133 130.135 47.2 129.602 47.2C128.682 47.2 127.868 47.02 127.162 46.66C126.468 46.3 125.928 45.7933 125.542 45.14C125.155 44.4867 124.962 43.7067 124.962 42.8C124.962 41.9067 125.168 41.1333 125.582 40.48C125.995 39.8133 126.542 39.3067 127.222 38.96C127.902 38.6 128.622 38.42 129.382 38.42C130.075 38.42 130.688 38.5133 131.222 38.7C131.755 38.8867 132.215 39.1467 132.602 39.48L131.582 40.82C131.355 40.6333 131.068 40.4667 130.722 40.32C130.388 40.1733 130.002 40.1 129.562 40.1C129.095 40.1 128.668 40.22 128.282 40.46C127.895 40.6867 127.588 41.0067 127.362 41.42C127.135 41.82 127.022 42.28 127.022 42.8C127.022 43.2933 127.135 43.7533 127.362 44.18C127.602 44.5933 127.928 44.92 128.342 45.16C128.755 45.4 129.228 45.52 129.762 45.52C130.108 45.52 130.428 45.4733 130.722 45.38C131.015 45.2733 131.275 45.1267 131.502 44.94L132.542 46.22ZM134.18 42.72C134.18 41.88 134.38 41.1267 134.78 40.46C135.18 39.78 135.734 39.2467 136.44 38.86C137.147 38.4733 137.954 38.28 138.86 38.28C139.78 38.28 140.587 38.4733 141.28 38.86C141.974 39.2467 142.507 39.78 142.88 40.46C143.267 41.1267 143.46 41.88 143.46 42.72C143.46 43.56 143.267 44.32 142.88 45C142.507 45.68 141.974 46.22 141.28 46.62C140.587 47.0067 139.774 47.2 138.84 47.2C137.947 47.2 137.147 47.02 136.44 46.66C135.747 46.3 135.194 45.7867 134.78 45.12C134.38 44.44 134.18 43.64 134.18 42.72ZM136.26 42.74C136.26 43.26 136.374 43.7333 136.6 44.16C136.827 44.5733 137.134 44.9067 137.52 45.16C137.907 45.4 138.34 45.52 138.82 45.52C139.314 45.52 139.754 45.4 140.14 45.16C140.527 44.9067 140.827 44.5733 141.04 44.16C141.267 43.7333 141.38 43.26 141.38 42.74C141.38 42.22 141.267 41.7533 141.04 41.34C140.827 40.9267 140.527 40.5933 140.14 40.34C139.754 40.0867 139.314 39.96 138.82 39.96C138.327 39.96 137.887 40.0867 137.5 40.34C137.114 40.5933 136.807 40.9333 136.58 41.36C136.367 41.7733 136.26 42.2333 136.26 42.74ZM147.736 38.62L147.916 40.42L147.836 40.28C148.156 39.6533 148.596 39.1667 149.156 38.82C149.716 38.46 150.363 38.28 151.096 38.28C151.55 38.28 151.956 38.3533 152.316 38.5C152.69 38.6467 152.996 38.8533 153.236 39.12C153.476 39.3867 153.63 39.72 153.696 40.12L153.596 40.18C153.93 39.5933 154.37 39.1333 154.916 38.8C155.476 38.4533 156.07 38.28 156.696 38.28C157.51 38.28 158.156 38.5133 158.636 38.98C159.13 39.4467 159.383 40.0467 159.396 40.78V47H157.356V41.56C157.343 41.1467 157.243 40.8 157.056 40.52C156.883 40.24 156.57 40.0867 156.116 40.06C155.636 40.06 155.21 40.2067 154.836 40.5C154.476 40.7933 154.196 41.1733 153.996 41.64C153.796 42.1067 153.69 42.6067 153.676 43.14V47H151.616V41.56C151.603 41.1467 151.503 40.8 151.316 40.52C151.13 40.24 150.803 40.0867 150.336 40.06C149.856 40.06 149.436 40.2067 149.076 40.5C148.716 40.7933 148.436 41.18 148.236 41.66C148.05 42.1267 147.956 42.62 147.956 43.14V47H145.896V38.62H147.736ZM166.497 47.2C165.523 47.2 164.69 47.0133 163.997 46.64C163.303 46.2533 162.77 45.7267 162.397 45.06C162.023 44.38 161.837 43.6067 161.837 42.74C161.837 41.9133 162.043 41.1667 162.457 40.5C162.883 39.82 163.45 39.28 164.157 38.88C164.877 38.48 165.67 38.28 166.537 38.28C167.657 38.28 168.583 38.6067 169.317 39.26C170.063 39.9133 170.563 40.8267 170.817 42L163.997 44.36L163.517 43.16L168.977 41.2L168.557 41.46C168.397 41.0467 168.143 40.6867 167.797 40.38C167.45 40.06 166.977 39.9 166.377 39.9C165.897 39.9 165.463 40.02 165.077 40.26C164.703 40.4867 164.403 40.8067 164.177 41.22C163.963 41.62 163.857 42.0933 163.857 42.64C163.857 43.2 163.97 43.6933 164.197 44.12C164.437 44.5333 164.757 44.86 165.157 45.1C165.57 45.34 166.03 45.46 166.537 45.46C166.897 45.46 167.237 45.3933 167.557 45.26C167.89 45.1267 168.203 44.96 168.497 44.76L169.437 46.28C168.997 46.56 168.517 46.7867 167.997 46.96C167.49 47.12 166.99 47.2 166.497 47.2ZM180.271 34.94H182.331V38.64H184.571V40.26H182.331V47H180.271V40.26H178.791V38.64H180.271V34.94ZM186.075 42.72C186.075 41.88 186.275 41.1267 186.675 40.46C187.075 39.78 187.628 39.2467 188.335 38.86C189.042 38.4733 189.848 38.28 190.755 38.28C191.675 38.28 192.482 38.4733 193.175 38.86C193.868 39.2467 194.402 39.78 194.775 40.46C195.162 41.1267 195.355 41.88 195.355 42.72C195.355 43.56 195.162 44.32 194.775 45C194.402 45.68 193.868 46.22 193.175 46.62C192.482 47.0067 191.668 47.2 190.735 47.2C189.842 47.2 189.042 47.02 188.335 46.66C187.642 46.3 187.088 45.7867 186.675 45.12C186.275 44.44 186.075 43.64 186.075 42.72ZM188.155 42.74C188.155 43.26 188.268 43.7333 188.495 44.16C188.722 44.5733 189.028 44.9067 189.415 45.16C189.802 45.4 190.235 45.52 190.715 45.52C191.208 45.52 191.648 45.4 192.035 45.16C192.422 44.9067 192.722 44.5733 192.935 44.16C193.162 43.7333 193.275 43.26 193.275 42.74C193.275 42.22 193.162 41.7533 192.935 41.34C192.722 40.9267 192.422 40.5933 192.035 40.34C191.648 40.0867 191.208 39.96 190.715 39.96C190.222 39.96 189.782 40.0867 189.395 40.34C189.008 40.5933 188.702 40.9333 188.475 41.36C188.262 41.7733 188.155 42.2333 188.155 42.74Z" fill="#606060"/>
<path d="M97.362 347.494C99.036 347.494 100.462 347.783 101.64 348.362C102.839 348.92 103.748 349.726 104.368 350.78C105.009 351.834 105.329 353.115 105.329 354.624C105.329 355.513 105.195 356.391 104.926 357.259C104.657 358.127 104.223 358.923 103.624 359.646C103.045 360.349 102.27 360.917 101.299 361.351C100.328 361.764 99.1497 361.971 97.765 361.971H94.479V370H91.162V347.494H97.362ZM97.765 358.778C98.5917 358.778 99.284 358.644 99.842 358.375C100.4 358.086 100.834 357.724 101.144 357.29C101.475 356.856 101.702 356.412 101.826 355.957C101.971 355.482 102.043 355.058 102.043 354.686C102.043 354.273 101.971 353.839 101.826 353.384C101.702 352.909 101.485 352.475 101.175 352.082C100.865 351.669 100.441 351.338 99.904 351.09C99.3667 350.821 98.695 350.687 97.889 350.687H94.479V358.778H97.765ZM109.128 370V345.913H112.228V359.956L112.197 359.429C112.631 358.582 113.292 357.879 114.181 357.321C115.069 356.763 116.134 356.484 117.374 356.484C118.593 356.484 119.595 356.846 120.381 357.569C121.187 358.292 121.6 359.233 121.621 360.39V370H118.428V361.506C118.407 360.845 118.211 360.307 117.839 359.894C117.467 359.46 116.888 359.233 116.103 359.212C115.4 359.212 114.759 359.429 114.181 359.863C113.602 360.276 113.147 360.855 112.817 361.599C112.486 362.322 112.321 363.149 112.321 364.079V370H109.128ZM125.389 363.366C125.389 362.064 125.699 360.896 126.319 359.863C126.939 358.809 127.796 357.982 128.892 357.383C129.987 356.784 131.237 356.484 132.643 356.484C134.069 356.484 135.319 356.784 136.394 357.383C137.468 357.982 138.295 358.809 138.874 359.863C139.473 360.896 139.773 362.064 139.773 363.366C139.773 364.668 139.473 365.846 138.874 366.9C138.295 367.954 137.468 368.791 136.394 369.411C135.319 370.01 134.058 370.31 132.612 370.31C131.227 370.31 129.987 370.031 128.892 369.473C127.817 368.915 126.959 368.119 126.319 367.086C125.699 366.032 125.389 364.792 125.389 363.366ZM128.613 363.397C128.613 364.203 128.788 364.937 129.14 365.598C129.491 366.239 129.966 366.755 130.566 367.148C131.165 367.52 131.837 367.706 132.581 367.706C133.345 367.706 134.027 367.52 134.627 367.148C135.226 366.755 135.691 366.239 136.022 365.598C136.373 364.937 136.549 364.203 136.549 363.397C136.549 362.591 136.373 361.868 136.022 361.227C135.691 360.586 135.226 360.07 134.627 359.677C134.027 359.284 133.345 359.088 132.581 359.088C131.816 359.088 131.134 359.284 130.535 359.677C129.935 360.07 129.46 360.597 129.109 361.258C128.778 361.899 128.613 362.612 128.613 363.397ZM144.789 351.307H147.982V357.042H151.454V359.553H147.982V370H144.789V359.553H142.495V357.042H144.789V351.307ZM153.785 363.366C153.785 362.064 154.095 360.896 154.715 359.863C155.335 358.809 156.193 357.982 157.288 357.383C158.383 356.784 159.634 356.484 161.039 356.484C162.465 356.484 163.715 356.784 164.79 357.383C165.865 357.982 166.691 358.809 167.27 359.863C167.869 360.896 168.169 362.064 168.169 363.366C168.169 364.668 167.869 365.846 167.27 366.9C166.691 367.954 165.865 368.791 164.79 369.411C163.715 370.01 162.455 370.31 161.008 370.31C159.623 370.31 158.383 370.031 157.288 369.473C156.213 368.915 155.356 368.119 154.715 367.086C154.095 366.032 153.785 364.792 153.785 363.366ZM157.009 363.397C157.009 364.203 157.185 364.937 157.536 365.598C157.887 366.239 158.363 366.755 158.962 367.148C159.561 367.52 160.233 367.706 160.977 367.706C161.742 367.706 162.424 367.52 163.023 367.148C163.622 366.755 164.087 366.239 164.418 365.598C164.769 364.937 164.945 364.203 164.945 363.397C164.945 362.591 164.769 361.868 164.418 361.227C164.087 360.586 163.622 360.07 163.023 359.677C162.424 359.284 161.742 359.088 160.977 359.088C160.212 359.088 159.53 359.284 158.931 359.677C158.332 360.07 157.856 360.597 157.505 361.258C157.174 361.899 157.009 362.612 157.009 363.397ZM187.239 370.31C186.02 370.31 184.914 370.062 183.922 369.566C182.93 369.049 182.145 368.285 181.566 367.272C180.988 366.259 180.698 365.009 180.698 363.521C180.698 362.054 180.998 360.793 181.597 359.739C182.217 358.685 183.023 357.879 184.015 357.321C185.028 356.742 186.123 356.453 187.301 356.453C188.541 356.453 189.554 356.722 190.339 357.259C191.145 357.776 191.776 358.385 192.23 359.088L192.013 359.584L192.323 357.011H195.268V370H192.075V366.745L192.416 367.52C192.334 367.685 192.158 367.923 191.889 368.233C191.621 368.522 191.259 368.832 190.804 369.163C190.37 369.494 189.854 369.773 189.254 370C188.676 370.207 188.004 370.31 187.239 370.31ZM188.107 367.706C188.789 367.706 189.399 367.582 189.936 367.334C190.474 367.086 190.928 366.735 191.3 366.28C191.672 365.825 191.931 365.288 192.075 364.668V361.971C191.91 361.392 191.631 360.896 191.238 360.483C190.846 360.049 190.37 359.708 189.812 359.46C189.275 359.212 188.676 359.088 188.014 359.088C187.27 359.088 186.588 359.274 185.968 359.646C185.348 359.997 184.852 360.493 184.48 361.134C184.108 361.775 183.922 362.519 183.922 363.366C183.922 364.172 184.108 364.906 184.48 365.567C184.873 366.228 185.39 366.755 186.03 367.148C186.671 367.52 187.363 367.706 188.107 367.706ZM203.012 357.011L203.291 359.987L203.167 359.584C203.601 358.654 204.273 357.91 205.182 357.352C206.091 356.773 207.166 356.484 208.406 356.484C209.625 356.484 210.628 356.846 211.413 357.569C212.219 358.292 212.632 359.233 212.653 360.39V370H209.46V361.506C209.439 360.845 209.243 360.307 208.871 359.894C208.499 359.46 207.92 359.233 207.135 359.212C206.432 359.212 205.792 359.429 205.213 359.863C204.634 360.276 204.18 360.845 203.849 361.568C203.518 362.291 203.353 363.128 203.353 364.079V370H200.16V357.011H203.012ZM222.838 370.31C221.619 370.31 220.523 370.031 219.552 369.473C218.581 368.894 217.816 368.078 217.258 367.024C216.7 365.97 216.421 364.74 216.421 363.335C216.421 361.888 216.721 360.659 217.32 359.646C217.919 358.613 218.725 357.827 219.738 357.29C220.771 356.732 221.929 356.453 223.21 356.453C224.202 356.453 225.142 356.66 226.031 357.073C226.94 357.466 227.643 358.024 228.139 358.747L228.046 359.832V345.913H231.208V370H228.015V366.931L228.356 367.768C227.715 368.491 226.93 369.101 226 369.597C225.07 370.072 224.016 370.31 222.838 370.31ZM223.83 367.613C224.553 367.613 225.194 367.489 225.752 367.241C226.31 366.993 226.785 366.642 227.178 366.187C227.571 365.712 227.85 365.164 228.015 364.544V361.94C227.87 361.361 227.591 360.855 227.178 360.421C226.785 359.966 226.3 359.615 225.721 359.367C225.142 359.119 224.512 358.995 223.83 358.995C223.065 358.995 222.363 359.181 221.722 359.553C221.102 359.904 220.596 360.4 220.203 361.041C219.831 361.682 219.645 362.426 219.645 363.273C219.645 364.079 219.831 364.813 220.203 365.474C220.596 366.135 221.112 366.662 221.753 367.055C222.394 367.427 223.086 367.613 223.83 367.613ZM248.661 347.494L255.915 365.598L254.024 365.257L260.813 347.494H264.719L254.706 371.054L244.724 347.494H248.661ZM267.972 357.011H271.165V370H267.972V357.011ZM267.786 352.361C267.786 351.865 267.983 351.452 268.375 351.121C268.768 350.79 269.192 350.625 269.646 350.625C270.122 350.625 270.545 350.79 270.917 351.121C271.289 351.452 271.475 351.865 271.475 352.361C271.475 352.857 271.289 353.27 270.917 353.601C270.545 353.911 270.122 354.066 269.646 354.066C269.192 354.066 268.768 353.911 268.375 353.601C267.983 353.27 267.786 352.857 267.786 352.361ZM281.326 370.31C280.107 370.31 279.012 370.031 278.04 369.473C277.069 368.894 276.304 368.078 275.746 367.024C275.188 365.97 274.909 364.74 274.909 363.335C274.909 361.888 275.209 360.659 275.808 359.646C276.408 358.613 277.214 357.827 278.226 357.29C279.26 356.732 280.417 356.453 281.698 356.453C282.69 356.453 283.631 356.66 284.519 357.073C285.429 357.466 286.131 358.024 286.627 358.747L286.534 359.832V345.913H289.696V370H286.503V366.931L286.844 367.768C286.204 368.491 285.418 369.101 284.488 369.597C283.558 370.072 282.504 370.31 281.326 370.31ZM282.318 367.613C283.042 367.613 283.682 367.489 284.24 367.241C284.798 366.993 285.274 366.642 285.666 366.187C286.059 365.712 286.338 365.164 286.503 364.544V361.94C286.359 361.361 286.08 360.855 285.666 360.421C285.274 359.966 284.788 359.615 284.209 359.367C283.631 359.119 283 358.995 282.318 358.995C281.554 358.995 280.851 359.181 280.21 359.553C279.59 359.904 279.084 360.4 278.691 361.041C278.319 361.682 278.133 362.426 278.133 363.273C278.133 364.079 278.319 364.813 278.691 365.474C279.084 366.135 279.601 366.662 280.241 367.055C280.882 367.427 281.574 367.613 282.318 367.613ZM300.69 370.31C299.181 370.31 297.889 370.021 296.815 369.442C295.74 368.843 294.913 368.026 294.335 366.993C293.756 365.939 293.467 364.74 293.467 363.397C293.467 362.116 293.787 360.958 294.428 359.925C295.089 358.871 295.967 358.034 297.063 357.414C298.179 356.794 299.408 356.484 300.752 356.484C302.488 356.484 303.924 356.99 305.061 358.003C306.218 359.016 306.993 360.431 307.386 362.25L296.815 365.908L296.071 364.048L304.534 361.01L303.883 361.413C303.635 360.772 303.242 360.214 302.705 359.739C302.167 359.243 301.434 358.995 300.504 358.995C299.76 358.995 299.088 359.181 298.489 359.553C297.91 359.904 297.445 360.4 297.094 361.041C296.763 361.661 296.598 362.395 296.598 363.242C296.598 364.11 296.773 364.875 297.125 365.536C297.497 366.177 297.993 366.683 298.613 367.055C299.253 367.427 299.966 367.613 300.752 367.613C301.31 367.613 301.837 367.51 302.333 367.303C302.849 367.096 303.335 366.838 303.79 366.528L305.247 368.884C304.565 369.318 303.821 369.669 303.015 369.938C302.229 370.186 301.454 370.31 300.69 370.31ZM309.814 363.366C309.814 362.064 310.124 360.896 310.744 359.863C311.364 358.809 312.222 357.982 313.317 357.383C314.413 356.784 315.663 356.484 317.068 356.484C318.494 356.484 319.745 356.784 320.819 357.383C321.894 357.982 322.721 358.809 323.299 359.863C323.899 360.896 324.198 362.064 324.198 363.366C324.198 364.668 323.899 365.846 323.299 366.9C322.721 367.954 321.894 368.791 320.819 369.411C319.745 370.01 318.484 370.31 317.037 370.31C315.653 370.31 314.413 370.031 313.317 369.473C312.243 368.915 311.385 368.119 310.744 367.086C310.124 366.032 309.814 364.792 309.814 363.366ZM313.038 363.397C313.038 364.203 313.214 364.937 313.565 365.598C313.917 366.239 314.392 366.755 314.991 367.148C315.591 367.52 316.262 367.706 317.006 367.706C317.771 367.706 318.453 367.52 319.052 367.148C319.652 366.755 320.117 366.239 320.447 365.598C320.799 364.937 320.974 364.203 320.974 363.397C320.974 362.591 320.799 361.868 320.447 361.227C320.117 360.586 319.652 360.07 319.052 359.677C318.453 359.284 317.771 359.088 317.006 359.088C316.242 359.088 315.56 359.284 314.96 359.677C314.361 360.07 313.886 360.597 313.534 361.258C313.204 361.899 313.038 362.612 313.038 363.397ZM356.32 368.016C356.01 368.285 355.576 368.553 355.018 368.822C354.46 369.091 353.829 369.328 353.127 369.535C352.445 369.742 351.742 369.907 351.019 370.031C350.295 370.176 349.613 370.248 348.973 370.248C347.154 370.248 345.521 369.969 344.075 369.411C342.628 368.853 341.388 368.078 340.355 367.086C339.321 366.094 338.526 364.937 337.968 363.614C337.43 362.271 337.162 360.814 337.162 359.243C337.162 357.321 337.472 355.616 338.092 354.128C338.712 352.64 339.549 351.39 340.603 350.377C341.677 349.344 342.907 348.569 344.292 348.052C345.697 347.515 347.164 347.246 348.694 347.246C350.037 347.246 351.277 347.401 352.414 347.711C353.571 348.021 354.563 348.424 355.39 348.92L354.305 351.958C353.891 351.731 353.375 351.514 352.755 351.307C352.155 351.08 351.535 350.904 350.895 350.78C350.254 350.656 349.665 350.594 349.128 350.594C347.805 350.594 346.617 350.79 345.563 351.183C344.529 351.555 343.641 352.103 342.897 352.826C342.153 353.549 341.574 354.428 341.161 355.461C340.768 356.494 340.572 357.662 340.572 358.964C340.572 360.142 340.778 361.227 341.192 362.219C341.605 363.19 342.184 364.038 342.928 364.761C343.672 365.464 344.56 366.011 345.594 366.404C346.627 366.776 347.774 366.962 349.035 366.962C349.758 366.962 350.471 366.89 351.174 366.745C351.876 366.6 352.476 366.394 352.972 366.125V362.033H348.632V358.84H356.32V368.016ZM366.64 370.31C365.42 370.31 364.315 370.062 363.323 369.566C362.331 369.049 361.545 368.285 360.967 367.272C360.388 366.259 360.099 365.009 360.099 363.521C360.099 362.054 360.398 360.793 360.998 359.739C361.618 358.685 362.424 357.879 363.416 357.321C364.428 356.742 365.524 356.453 366.702 356.453C367.942 356.453 368.954 356.722 369.74 357.259C370.546 357.776 371.176 358.385 371.631 359.088L371.414 359.584L371.724 357.011H374.669V370H371.476V366.745L371.817 367.52C371.734 367.685 371.558 367.923 371.29 368.233C371.021 368.522 370.659 368.832 370.205 369.163C369.771 369.494 369.254 369.773 368.655 370C368.076 370.207 367.404 370.31 366.64 370.31ZM367.508 367.706C368.19 367.706 368.799 367.582 369.337 367.334C369.874 367.086 370.329 366.735 370.701 366.28C371.073 365.825 371.331 365.288 371.476 364.668V361.971C371.31 361.392 371.031 360.896 370.639 360.483C370.246 360.049 369.771 359.708 369.213 359.46C368.675 359.212 368.076 359.088 367.415 359.088C366.671 359.088 365.989 359.274 365.369 359.646C364.749 359.997 364.253 360.493 363.881 361.134C363.509 361.775 363.323 362.519 363.323 363.366C363.323 364.172 363.509 364.906 363.881 365.567C364.273 366.228 364.79 366.755 365.431 367.148C366.071 367.52 366.764 367.706 367.508 367.706ZM379.56 345.913H382.753V370H379.56V345.913ZM387.613 345.913H390.806V370H387.613V345.913ZM401.773 370.31C400.264 370.31 398.972 370.021 397.898 369.442C396.823 368.843 395.996 368.026 395.418 366.993C394.839 365.939 394.55 364.74 394.55 363.397C394.55 362.116 394.87 360.958 395.511 359.925C396.172 358.871 397.05 358.034 398.146 357.414C399.262 356.794 400.491 356.484 401.835 356.484C403.571 356.484 405.007 356.99 406.144 358.003C407.301 359.016 408.076 360.431 408.469 362.25L397.898 365.908L397.154 364.048L405.617 361.01L404.966 361.413C404.718 360.772 404.325 360.214 403.788 359.739C403.25 359.243 402.517 358.995 401.587 358.995C400.843 358.995 400.171 359.181 399.572 359.553C398.993 359.904 398.528 360.4 398.177 361.041C397.846 361.661 397.681 362.395 397.681 363.242C397.681 364.11 397.856 364.875 398.208 365.536C398.58 366.177 399.076 366.683 399.696 367.055C400.336 367.427 401.049 367.613 401.835 367.613C402.393 367.613 402.92 367.51 403.416 367.303C403.932 367.096 404.418 366.838 404.873 366.528L406.33 368.884C405.648 369.318 404.904 369.669 404.098 369.938C403.312 370.186 402.537 370.31 401.773 370.31ZM414.865 357.011L415.175 360.731L415.02 360.235C415.372 359.45 415.868 358.778 416.508 358.22C417.149 357.662 417.81 357.238 418.492 356.949C419.195 356.639 419.784 356.484 420.259 356.484L420.104 359.646C419.112 359.584 418.244 359.77 417.5 360.204C416.777 360.638 416.209 361.217 415.795 361.94C415.382 362.663 415.175 363.438 415.175 364.265V370H412.013V357.011H414.865ZM424.966 376.231L433.553 357.011H436.467L428.097 376.231H424.966ZM428.252 370.093L421.959 357.011H425.555L430.701 368.481L428.252 370.093Z" fill="#606060"/>
<path d="M159.2 102.3C149.6 97 141.25 94.35 134.15 94.35C129.35 94.35 125.6 95.3 122.9 97.2C120.3 99.1 119 101.95 119 105.75C119 109.25 120.9 112.35 124.7 115.05C128.6 117.65 133.75 120.15 140.15 122.55C145.35 124.45 149.8 126.65 153.5 129.15C157.2 131.55 160.25 134.9 162.65 139.2C165.15 143.5 166.4 148.95 166.4 155.55C166.4 161.25 164.9 166.55 161.9 171.45C159 176.25 154.7 180.1 149 183C143.3 185.8 136.5 187.2 128.6 187.2C122 187.2 115.45 186.25 108.95 184.35C102.45 182.35 96.4 179.35 90.8 175.35L100.4 158.4C104.2 161.2 108.55 163.5 113.45 165.3C118.35 167.1 122.75 168 126.65 168C131.25 168 135.25 167.05 138.65 165.15C142.05 163.15 143.75 159.95 143.75 155.55C143.75 149.85 138.4 144.9 127.7 140.7C121.4 138.2 116.15 135.8 111.95 133.5C107.75 131.2 104.1 127.9 101 123.6C98 119.3 96.5 113.9 96.5 107.4C96.5 97.9 99.6 90.25 105.8 84.45C112.1 78.65 120.45 75.5 130.85 75C139.05 75 145.9 75.95 151.4 77.85C156.9 79.65 162.25 82.25 167.45 85.65L159.2 102.3ZM202.401 91.65V120.15H218.301V136.5H202.401V186H181.401V136.5H171.201V120.15H181.401V91.65H202.401ZM295.784 120.45V186H274.784V177.9C268.484 184.5 261.184 187.8 252.884 187.8C243.184 187.8 235.284 184.9 229.184 179.1C223.184 173.3 220.184 164.7 220.184 153.3C220.184 146.1 221.634 139.8 224.534 134.4C227.534 128.9 231.484 124.65 236.384 121.65C241.284 118.65 246.534 117.15 252.134 117.15C257.934 117.15 262.534 118.05 265.934 119.85C269.334 121.55 272.334 124 274.934 127.2L276.284 120.45H295.784ZM258.884 170.7C266.184 170.7 271.484 167.4 274.784 160.8V144.75C273.584 141.55 271.484 139 268.484 137.1C265.584 135.2 262.134 134.25 258.134 134.25C253.534 134.25 249.584 135.95 246.284 139.35C243.084 142.75 241.484 147.05 241.484 152.25C241.484 155.65 242.284 158.8 243.884 161.7C245.484 164.5 247.584 166.7 250.184 168.3C252.884 169.9 255.784 170.7 258.884 170.7ZM335.573 91.65V120.15H351.473V136.5H335.573V186H314.573V136.5H304.373V120.15H314.573V91.65H335.573ZM379.456 120.45V186H358.456V120.45H379.456ZM358.006 97.2C358.006 94.2 359.156 91.7 361.456 89.7C363.856 87.6 366.556 86.55 369.556 86.55C372.456 86.55 375.056 87.6 377.356 89.7C379.656 91.7 380.806 94.2 380.806 97.2C380.806 100.2 379.656 102.7 377.356 104.7C375.056 106.7 372.456 107.7 369.556 107.7C366.556 107.7 363.856 106.7 361.456 104.7C359.156 102.7 358.006 100.2 358.006 97.2ZM462.583 120.45V186H441.583V177.9C435.283 184.5 427.983 187.8 419.683 187.8C409.983 187.8 402.083 184.9 395.983 179.1C389.983 173.3 386.983 164.7 386.983 153.3C386.983 146.1 388.433 139.8 391.333 134.4C394.333 128.9 398.283 124.65 403.183 121.65C408.083 118.65 413.333 117.15 418.933 117.15C424.733 117.15 429.333 118.05 432.733 119.85C436.133 121.55 439.133 124 441.733 127.2L443.083 120.45H462.583ZM425.683 170.7C432.983 170.7 438.283 167.4 441.583 160.8V144.75C440.383 141.55 438.283 139 435.283 137.1C432.383 135.2 428.933 134.25 424.933 134.25C420.333 134.25 416.383 135.95 413.083 139.35C409.883 142.75 408.283 147.05 408.283 152.25C408.283 155.65 409.083 158.8 410.683 161.7C412.283 164.5 414.383 166.7 416.983 168.3C419.683 169.9 422.583 170.7 425.683 170.7Z" fill="#363636"/>
<path d="M167.15 202.6V223.6H140.3V313H118.55V223.6H92.75V202.6H167.15ZM155.649 279.4C155.649 272.7 157.199 266.7 160.299 261.4C163.499 256.1 167.949 251.95 173.649 248.95C179.449 245.85 185.999 244.3 193.299 244.3C200.599 244.3 206.999 245.85 212.499 248.95C218.099 251.95 222.399 256.1 225.399 261.4C228.399 266.7 229.899 272.7 229.899 279.4C229.899 286.1 228.399 292.15 225.399 297.55C222.399 302.95 218.099 307.2 212.499 310.3C206.999 313.3 200.499 314.8 192.999 314.8C185.699 314.8 179.199 313.4 173.499 310.6C167.899 307.7 163.499 303.6 160.299 298.3C157.199 293 155.649 286.7 155.649 279.4ZM176.799 279.55C176.799 284.75 178.299 289.1 181.299 292.6C184.299 296 188.099 297.7 192.699 297.7C197.499 297.7 201.349 296 204.249 292.6C207.249 289.2 208.749 284.85 208.749 279.55C208.749 274.25 207.249 269.9 204.249 266.5C201.349 263.1 197.499 261.4 192.699 261.4C188.099 261.4 184.299 263.15 181.299 266.65C178.299 270.05 176.799 274.35 176.799 279.55ZM303.443 247.45V313H284.393L282.893 302.5C280.593 306.7 277.343 310.05 273.143 312.55C269.043 314.95 264.193 316.15 258.593 316.15C252.593 316.15 247.593 314.3 243.593 310.6C239.593 306.9 237.543 302.2 237.443 296.5V247.45H258.443V288.7C258.743 295.1 261.693 298.3 267.293 298.3C271.893 298.3 275.543 296.05 278.243 291.55C281.043 287.05 282.443 281.25 282.443 274.15V247.45H303.443ZM336.59 262.45C338.39 258.95 340.84 255.8 343.94 253C347.14 250.2 350.39 248.05 353.69 246.55C356.99 244.95 359.59 244.15 361.49 244.15L360.44 265.15C359.84 265.05 358.99 265 357.89 265C353.69 265 349.99 266.1 346.79 268.3C343.59 270.5 341.14 273.35 339.44 276.85C337.74 280.25 336.89 283.75 336.89 287.35V313H316.04V247.45H334.94L336.59 262.45ZM389.564 247.45V313H368.564V247.45H389.564ZM368.114 224.2C368.114 221.2 369.264 218.7 371.564 216.7C373.964 214.6 376.664 213.55 379.664 213.55C382.564 213.55 385.164 214.6 387.464 216.7C389.764 218.7 390.914 221.2 390.914 224.2C390.914 227.2 389.764 229.7 387.464 231.7C385.164 233.7 382.564 234.7 379.664 234.7C376.664 234.7 373.964 233.7 371.564 231.7C369.264 229.7 368.114 227.2 368.114 224.2ZM423.491 314.35C418.091 314.35 413.041 313.4 408.341 311.5C403.641 309.6 399.741 306.95 396.641 303.55L405.341 292C411.141 297.4 416.591 300.1 421.691 300.1C424.391 300.1 426.541 299.7 428.141 298.9C429.841 298 430.691 296.7 430.691 295C430.691 293 429.741 291.5 427.841 290.5C425.941 289.4 423.791 288.5 421.391 287.8C419.091 287.1 417.541 286.65 416.741 286.45C411.041 284.65 406.791 282 403.991 278.5C401.191 274.9 399.791 270.8 399.791 266.2C399.791 262.7 400.691 259.3 402.491 256C404.391 252.6 407.291 249.85 411.191 247.75C415.091 245.55 419.941 244.45 425.741 244.45C431.141 244.45 435.741 245 439.541 246.1C443.341 247.2 446.991 249 450.491 251.5L442.541 263.8C440.541 262.2 438.291 260.9 435.791 259.9C433.391 258.8 431.191 258.25 429.191 258.25C426.791 258.25 424.841 258.75 423.341 259.75C421.841 260.75 421.091 261.95 421.091 263.35C420.991 265.45 421.841 267.05 423.641 268.15C425.541 269.15 428.441 270.2 432.341 271.3C432.941 271.5 433.541 271.7 434.141 271.9C434.841 272.1 435.541 272.3 436.241 272.5C446.541 275.9 451.691 282.1 451.691 291.1C451.691 295.3 450.641 299.15 448.541 302.65C446.441 306.15 443.241 309 438.941 311.2C434.741 313.3 429.591 314.35 423.491 314.35ZM546.68 244.15C553.08 244.15 558.18 245.95 561.98 249.55C565.88 253.15 567.93 257.9 568.13 263.8V313H547.28V272.5C547.08 269.2 546.53 266.75 545.63 265.15C544.73 263.45 542.98 262.5 540.38 262.3C535.48 262.3 531.63 264.7 528.83 269.5C526.13 274.2 524.78 279.75 524.78 286.15V313H503.78V272.5C503.58 269.2 502.98 266.75 501.98 265.15C500.98 263.45 499.13 262.5 496.43 262.3C491.73 262.3 488.03 264.7 485.33 269.5C482.63 274.2 481.28 279.65 481.28 285.85V313H460.28V247.45H479.33L480.83 257.8C486.13 248.7 494.03 244.15 504.53 244.15C509.83 244.15 514.18 245.25 517.58 247.45C521.08 249.55 523.48 252.7 524.78 256.9C527.58 253 530.88 249.9 534.68 247.6C538.58 245.3 542.58 244.15 546.68 244.15Z" fill="#F9951A"/>
<rect y="79" width="55" height="232" fill="#DDDDDD"/>
</svg>
