<svg width="30" height="30" viewBox="0 0 30 30" fill="none" xmlns="http://www.w3.org/2000/svg">
<g clip-path="url(#clip0_90_2)">
<mask id="path-1-inside-1_90_2" fill="white">
<path d="M15 0C6.71531 0 0 6.71531 0 15C0 23.2847 6.71531 30 15 30C23.2847 30 30 23.2847 30 15C30 6.71531 23.2847 0 15 0ZM15 29.0625C7.24594 29.0625 0.9375 22.7541 0.9375 15C0.9375 7.24594 7.24594 0.9375 15 0.9375C22.7541 0.9375 29.0625 7.24594 29.0625 15C29.0625 22.7541 22.7541 29.0625 15 29.0625Z"/>
</mask>
<path d="M15 -3C5.05846 -3 -3 5.05846 -3 15H3C3 8.37217 8.37217 3 15 3V-3ZM-3 15C-3 24.9415 5.05846 33 15 33V27C8.37217 27 3 21.6278 3 15H-3ZM15 33C24.9415 33 33 24.9415 33 15H27C27 21.6278 21.6278 27 15 27V33ZM33 15C33 5.05846 24.9415 -3 15 -3V3C21.6278 3 27 8.37217 27 15H33ZM15 26.0625C8.90279 26.0625 3.9375 21.0972 3.9375 15H-2.0625C-2.0625 24.4109 5.58908 32.0625 15 32.0625V26.0625ZM3.9375 15C3.9375 8.90279 8.90279 3.9375 15 3.9375V-2.0625C5.58908 -2.0625 -2.0625 5.58908 -2.0625 15H3.9375ZM15 3.9375C21.0972 3.9375 26.0625 8.90279 26.0625 15H32.0625C32.0625 5.58908 24.4109 -2.0625 15 -2.0625V3.9375ZM26.0625 15C26.0625 21.0972 21.0972 26.0625 15 26.0625V32.0625C24.4109 32.0625 32.0625 24.4109 32.0625 15H26.0625Z" fill="white" mask="url(#path-1-inside-1_90_2)"/>
<path d="M10.3369 7.605V22.395L23.1459 15L10.3369 7.605ZM11.2744 9.22875L21.2709 15L11.2744 20.7712V9.22875Z" fill="white"/>
</g>
<defs>
<clipPath id="clip0_90_2">
<rect width="30" height="30" fill="white"/>
</clipPath>
</defs>
</svg>
